# xmcd
#
# Track frame offsets: 
#        150
#        11062
#        20578
#        31996
#        44746
#        54758
#        65166
#        77897
#        91210
#        101611
#        112430
#        121591
#
# Disc length: 1758 seconds
#
# Revision: 0
# Processed by: cddbd v1.5.2PL0 Copyright (c) Steve Scherf et al.
# Submitted via: ExactAudioCopy v0.99pb4
#
DISCID=9f06dc0c
DTITLE=Albert Collins - The Compleat Albert Collins
DYEAR=1970
DGENRE=Blues
TTITLE0=Soul Food
TTITLE1=Jam It Up
TTITLE2=Do What You Want To Do
TTITLE3=Black Bottom Bayou
TTITLE4=Junkey Monkey
TTITLE5=69 Underpass Roadside Inn
TTITLE6=I Need You So
TTITLE7=Bitsey
TTITLE8=Coon 'N Collards
TTITLE9=Blend Down And Jam
TTITLE10=Sweet 'N Sour
TTITLE11=Swamp Sauce
EXTD=
EXTT0=
EXTT1=
EXTT2=
EXTT3=
EXTT4=
EXTT5=
EXTT6=
EXTT7=
EXTT8=
EXTT9=
EXTT10=
EXTT11=
PLAYORDER=
